<?xml version="1.0" encoding="UTF-8" standalone="no"?>
<!DOCTYPE svg PUBLIC "-//W3C//DTD SVG 1.1//EN" "http://www.w3.org/Graphics/SVG/1.1/DTD/svg11.dtd">
<svg width="100%" height="100%" viewBox="0 0 300 300" version="1.1" xmlns="http://www.w3.org/2000/svg" xmlns:xlink="http://www.w3.org/1999/xlink" xml:space="preserve" xmlns:serif="http://www.serif.com/" style="fill-rule:evenodd;clip-rule:evenodd;stroke-linejoin:round;stroke-miterlimit:2;">
    <path d="M187.86,0C196.327,0.267 204.79,0.583 213.25,0.95C240.55,2.14 264.58,10.8 281.76,32.91C293.45,47.96 298.22,67.54 299.05,86.5C299.417,95.047 299.733,103.593 300,112.14L300,187.87C299.74,196.417 299.423,204.96 299.05,213.5C297.92,239.48 289.81,263 269.15,280.12C253.52,293.07 233.47,298.14 213.5,299.03C204.953,299.41 196.403,299.733 187.85,300L112.24,300C103.66,299.74 95.08,299.417 86.5,299.03C71.35,298.36 56.67,295.31 43.24,288.38C28.86,280.95 16.21,267.6 9.4,252.15C3.97,239.83 1.56,226.88 0.97,213.5C0.59,204.96 0.267,196.413 0,187.86L0,112.13C0.407,99.683 0.693,91.473 0.86,87.5C1.64,69.47 5.67,50.85 16.01,35.99C32.4,12.43 57.59,2.22 85.51,1.02C97.77,0.493 106.657,0.153 112.17,0L187.86,0ZM272.17,89.26C271.51,73.76 268.25,57.93 257.47,46.11C244.46,31.83 226.58,28.42 207.38,27.74C177.87,26.69 147.98,27.12 118.98,27.16C106.02,27.173 94.233,27.57 83.62,28.35C77.72,28.777 72.36,29.69 67.54,31.09C43.63,38.05 31.61,55.81 28.83,80.25C28.11,86.53 27.683,93.76 27.55,101.94C27.223,122.067 27.133,148.377 27.28,180.87C27.327,192.51 27.703,204.197 28.41,215.93C28.877,223.637 30.33,230.743 32.77,237.25C38.583,252.723 49.483,263.01 65.47,268.11C71.343,269.99 76.813,271.103 81.88,271.45C94.753,272.33 107.297,272.783 119.51,272.81C142.617,272.857 163.23,272.86 181.35,272.82C193.29,272.8 204.92,272.4 216.24,271.62C226.44,270.913 235.21,268.737 242.55,265.09C265.21,253.81 271.44,232.11 272.28,208.24C273.32,178.37 273.05,148.14 272.91,118.99C272.87,109.73 272.623,99.82 272.17,89.26Z" style="fill:white;fill-rule:nonzero;"/>
    <circle cx="230.02" cy="69.87" r="18.09" style="fill:white;"/>
    <path d="M227.09,149.94C227.09,192.252 192.272,227.07 149.96,227.07C107.648,227.07 72.83,192.252 72.83,149.94C72.83,107.628 107.648,72.81 149.96,72.81C192.272,72.81 227.09,107.628 227.09,149.94ZM199.96,149.97C199.96,122.585 177.425,100.05 150.04,100.05C122.655,100.05 100.12,122.585 100.12,149.97C100.12,177.355 122.655,199.89 150.04,199.89C177.425,199.89 199.96,177.355 199.96,149.97Z" style="fill:white;fill-rule:nonzero;"/>
</svg>
