<?xml version="1.0" encoding="UTF-8" standalone="no"?>
<!DOCTYPE svg PUBLIC "-//W3C//DTD SVG 1.1//EN" "http://www.w3.org/Graphics/SVG/1.1/DTD/svg11.dtd">
<svg width="100%" height="100%" viewBox="0 0 2168 901" version="1.1" xmlns="http://www.w3.org/2000/svg" xmlns:xlink="http://www.w3.org/1999/xlink" xml:space="preserve" xmlns:serif="http://www.serif.com/" style="fill-rule:evenodd;clip-rule:evenodd;stroke-linejoin:round;stroke-miterlimit:2;">
    <g transform="matrix(1,0,0,1,-1740.15,-1229.01)">
        <g transform="matrix(4.16667,0,0,4.16667,0,0)">
            <g transform="matrix(2.89104,0,0,2.89104,-309.58,-715.831)">
                <path d="M327.771,410.975L329.482,410.975L329.482,407.289L333.793,407.289L334.787,405.745L329.482,405.745L329.482,403.829L336.115,403.829L336.115,402.273L327.771,402.273L327.771,410.975Z" style="fill:rgb(237,28,36);fill-rule:nonzero;"/>
            </g>
        </g>
        <g transform="matrix(4.16667,0,0,4.16667,0,0)">
            <g transform="matrix(2.89104,0,0,2.89104,-309.58,-715.831)">
                <path d="M340.778,407.642L342.842,404.089L344.934,407.642L340.778,407.642ZM341.988,402.273L336.844,410.975L338.843,410.975L339.882,409.186L345.844,409.186L346.897,410.975L348.874,410.975L343.689,402.273L341.988,402.273Z" style="fill:rgb(237,28,36);fill-rule:nonzero;"/>
            </g>
        </g>
        <g transform="matrix(4.16667,0,0,4.16667,0,0)">
            <g transform="matrix(2.89104,0,0,2.89104,-309.58,-715.831)">
                <path d="M358.428,408.344C358.428,408.839 358.337,409.177 358.179,409.273C358.052,409.349 357.709,409.478 356.844,409.478L353.206,409.478C352.505,409.478 352.048,409.344 351.919,409.102C351.8,408.876 351.658,408.358 351.658,407.176C351.658,406.835 351.662,406.475 351.67,406.098C351.677,405.727 351.705,405.316 351.752,404.862C351.799,404.398 351.913,404.198 351.999,404.113C352.044,404.069 352.255,403.921 353.051,403.854C353.349,403.854 353.793,403.84 354.381,403.812C354.954,403.784 355.381,403.77 355.663,403.77C356.41,403.77 357.004,403.798 357.428,403.853C357.945,403.92 358.121,404.006 358.174,404.041C358.201,404.059 358.285,404.113 358.321,404.311C358.36,404.525 358.38,404.806 358.38,405.223L358.38,405.595L360.08,405.595L360.08,405.223C360.08,404.462 359.98,403.863 359.775,403.393C359.545,402.865 359.116,402.523 358.537,402.403C358.059,402.304 357.663,402.242 357.36,402.221C357.067,402.2 356.684,402.19 356.212,402.19L354.78,402.19C354.395,402.19 354.058,402.195 353.772,402.203C353.48,402.214 353.169,402.237 352.884,402.273C352.103,402.273 351.474,402.432 351.016,402.744C350.537,403.07 350.231,403.552 350.108,404.175C350,404.726 349.941,405.147 349.929,405.462C349.916,405.76 349.911,406.216 349.911,406.839L349.958,408.345C349.958,409.917 350.809,410.835 352.439,411L354.22,411.071L357.161,411C358.41,410.999 359.21,410.779 359.606,410.329C359.989,409.893 360.176,409.14 360.176,408.026L360.176,407.653L358.428,407.653L358.428,408.344Z" style="fill:rgb(237,28,36);fill-rule:nonzero;"/>
            </g>
        </g>
        <g transform="matrix(4.16667,0,0,4.16667,0,0)">
            <g transform="matrix(2.89104,0,0,2.89104,-309.58,-715.831)">
                <path d="M361.577,403.829L365.585,403.829L365.585,410.975L367.297,410.975L367.297,403.829L371.329,403.829L371.329,402.273L362.571,402.273L361.577,403.829Z" style="fill:rgb(237,28,36);fill-rule:nonzero;"/>
            </g>
        </g>
        <g transform="matrix(4.16667,0,0,4.16667,0,0)">
            <g transform="matrix(2.89104,0,0,2.89104,-309.58,-715.831)">
                <path d="M382.035,406.111L382.035,407.748C382.035,408.324 381.957,408.749 381.805,409.012C381.682,409.224 381.393,409.353 380.948,409.397C380.385,409.451 379.822,409.478 379.274,409.478L376.232,409.431L376.223,409.431C375.16,409.431 374.895,409.184 374.831,409.077C374.708,408.875 374.562,408.39 374.562,407.229L374.597,405.445C374.597,404.415 374.803,404.134 374.891,404.062C375.012,403.962 375.377,403.795 376.448,403.795L378.288,403.77L380.165,403.795C380.408,403.795 380.638,403.803 380.855,403.824C381.059,403.841 381.259,403.876 381.457,403.931C381.592,403.967 381.694,404.042 381.779,404.164C381.876,404.306 381.945,404.54 381.977,404.842C382.016,405.197 382.035,405.623 382.035,406.111ZM379.533,402.19L376.014,402.19C375.223,402.19 374.57,402.326 374.072,402.594C373.529,402.885 373.183,403.355 373.044,403.991C372.923,404.54 372.856,404.957 372.838,405.263C372.822,405.552 372.814,406.022 372.814,406.678C372.814,407.376 372.843,407.989 372.9,408.502C372.962,409.058 373.106,409.523 373.329,409.883C373.565,410.265 373.877,410.539 374.254,410.695C374.591,410.837 375.007,410.934 375.492,410.985C375.955,411.034 376.44,411.059 376.933,411.059L378.925,411.059C379.261,411.059 379.615,411.055 379.989,411.047C380.37,411.038 380.684,411.022 380.893,411C381.755,411 382.422,410.795 382.876,410.392C383.331,409.989 383.601,409.416 383.68,408.692C383.748,408.048 383.783,407.427 383.783,406.845L383.783,406.308C383.783,404.572 383.517,403.475 382.969,402.955C382.427,402.44 381.304,402.19 379.533,402.19Z" style="fill:rgb(237,28,36);fill-rule:nonzero;"/>
            </g>
        </g>
        <g transform="matrix(4.16667,0,0,4.16667,0,0)">
            <g transform="matrix(2.89104,0,0,2.89104,-309.58,-715.831)">
                <path d="M388.16,403.829L393.096,403.829C393.843,403.829 394.191,403.951 394.351,404.052C394.524,404.162 394.62,404.48 394.62,404.948C394.62,405.463 394.524,405.823 394.349,405.963C394.233,406.055 393.919,406.21 393.12,406.21L388.16,406.21L388.16,403.829ZM396.368,405.008C396.368,403.945 396.115,403.234 395.596,402.834C395.107,402.457 394.355,402.273 393.299,402.273L386.449,402.273L386.449,409.981L388.16,410.975L388.16,407.754L393.215,407.754C393.915,407.754 394.192,407.886 394.295,407.964C394.381,408.03 394.525,408.23 394.525,408.837L394.525,410.975L396.224,410.975L396.224,408.444C396.224,407.829 396.047,407.385 395.698,407.124C395.659,407.095 395.618,407.067 395.575,407.041C395.741,406.947 395.872,406.837 395.971,406.712C396.238,406.375 396.368,405.818 396.368,405.008Z" style="fill:rgb(237,28,36);fill-rule:nonzero;"/>
            </g>
        </g>
        <g transform="matrix(4.16667,0,0,4.16667,0,0)">
            <g transform="matrix(2.89104,0,0,2.89104,-309.58,-715.831)">
                <path d="M406.599,402.273L403.046,405.85L399.514,402.273L397.085,402.273L402.195,407.369L402.195,410.975L403.906,409.981L403.906,407.37L409.03,402.273L406.599,402.273Z" style="fill:rgb(237,28,36);fill-rule:nonzero;"/>
            </g>
        </g>
        <g transform="matrix(4.16667,0,0,4.16667,0,0)">
            <g transform="matrix(2.89104,0,0,2.89104,-309.58,-715.831)">
                <path d="M309.006,366.125L312.395,366.125L312.395,372.166L313.801,372.166L313.801,366.125L317.21,366.125L317.21,364.851L309.006,364.851L309.006,366.125Z" style="fill:rgb(237,28,36);fill-rule:nonzero;"/>
            </g>
        </g>
        <g transform="matrix(4.16667,0,0,4.16667,0,0)">
            <g transform="matrix(2.89104,0,0,2.89104,-309.58,-715.831)">
                <path d="M325.597,367.765L319.912,367.765L319.912,364.851L318.507,364.851L318.507,372.166L319.912,372.166L319.912,369.03L325.597,369.03L325.597,372.166L326.993,372.166L326.993,364.851L325.597,364.851L325.597,367.765Z" style="fill:rgb(237,28,36);fill-rule:nonzero;"/>
            </g>
        </g>
        <g transform="matrix(4.16667,0,0,4.16667,0,0)">
            <g transform="matrix(2.89104,0,0,2.89104,-309.58,-715.831)">
                <path d="M330.704,370.902L330.704,369.03L336.342,369.03L336.342,367.765L330.704,367.765L330.704,366.125L336.554,366.125L336.554,364.851L329.299,364.851L329.299,372.166L336.624,372.166L336.624,370.902L330.704,370.902Z" style="fill:rgb(237,28,36);fill-rule:nonzero;"/>
            </g>
        </g>
        <g transform="matrix(4.16667,0,0,4.16667,0,0)">
            <g transform="matrix(2.89104,0,0,2.89104,-309.58,-715.831)">
                <path d="M318.449,386.459L321.056,390.037L329.79,390.037C329.727,391.732 329.471,392.553 329.252,392.949C328.976,393.446 328.194,393.752 326.932,393.855C325.337,393.985 324.046,394.051 323.095,394.051L314.757,393.965C311.03,393.965 310.503,393.2 310.429,392.963C310.118,391.97 309.961,390.466 309.961,388.511L310.09,383.582C310.09,381.654 310.563,381.213 310.707,381.125C311.08,380.896 311.909,380.592 313.689,380.446L317.892,380.305L324.878,380.362C327.517,380.362 328.53,380.662 328.896,380.842C329.112,380.947 329.609,381.387 329.609,383.21L329.609,384.043L334.098,384.043L334.098,383.21C334.098,381.065 333.595,379.499 332.561,378.42C331.501,377.317 329.769,376.757 327.448,376.757L327.444,376.757L323.083,376.613L315.015,376.699C310.799,376.699 308.171,377.508 306.981,379.171C305.878,380.71 305.342,383.357 305.342,387.263L305.342,388.319C305.342,392.175 306.089,394.657 307.624,395.908C309.14,397.143 312.014,397.743 316.411,397.743L325.495,397.743C329.221,397.743 331.608,397.06 332.792,395.655C333.912,394.328 334.456,392.145 334.456,388.972L334.407,386.459L318.449,386.459Z" style="fill:white;fill-rule:nonzero;"/>
            </g>
        </g>
        <g transform="matrix(4.16667,0,0,4.16667,0,0)">
            <g transform="matrix(2.89104,0,0,2.89104,-309.58,-715.831)">
                <path d="M345.452,388.638L358.374,388.638L363.588,385.06L345.452,385.06L345.452,380.419L364.269,380.419L364.269,376.813L340.932,376.813L340.932,397.514L364.496,397.514L364.496,393.936L345.452,393.936L345.452,388.638Z" style="fill:white;fill-rule:nonzero;"/>
            </g>
        </g>
        <g transform="matrix(4.16667,0,0,4.16667,0,0)">
            <g transform="matrix(2.89104,0,0,2.89104,-309.58,-715.831)">
                <path d="M375.56,388.638L388.482,388.638L393.696,385.06L375.56,385.06L375.56,380.419L394.377,380.419L394.377,376.813L371.04,376.813L371.04,397.514L394.604,397.514L394.604,393.936L375.56,393.936L375.56,388.638Z" style="fill:white;fill-rule:nonzero;"/>
            </g>
        </g>
        <g transform="matrix(4.16667,0,0,4.16667,0,0)">
            <g transform="matrix(2.89104,0,0,2.89104,-309.58,-715.831)">
                <path d="M413.059,386.836L430.399,376.813L422.462,376.813L408.264,385.032L405.666,385.032L405.666,376.813L401.146,376.813L401.146,397.514L405.666,395.221L405.666,388.609L408.259,388.609L423.303,397.514L431.459,397.514L413.059,386.836Z" style="fill:white;fill-rule:nonzero;"/>
            </g>
        </g>
        <g transform="matrix(4.16667,0,0,4.16667,0,0)">
            <g transform="matrix(2.89104,0,0,2.89104,-309.58,-715.831)">
                <path d="M255.826,359.072L255.826,414.386C255.826,414.577 255.84,414.766 255.863,414.955C255.87,415.016 255.883,415.076 255.892,415.137C255.913,415.265 255.936,415.393 255.967,415.52C255.983,415.589 256.002,415.657 256.023,415.726C256.057,415.845 256.095,415.963 256.138,416.081C256.163,416.149 256.187,416.217 256.216,416.284C256.265,416.408 256.323,416.53 256.384,416.651C256.411,416.709 256.437,416.768 256.469,416.825C256.558,416.992 256.656,417.157 256.762,417.32C256.769,417.33 256.775,417.342 256.782,417.352C256.897,417.526 257.023,417.697 257.157,417.866C257.2,417.919 257.247,417.971 257.29,418.024C257.388,418.14 257.488,418.256 257.592,418.369C257.65,418.43 257.709,418.491 257.769,418.551C257.872,418.657 257.979,418.761 258.09,418.864C258.153,418.924 258.217,418.983 258.284,419.042C258.405,419.149 258.53,419.254 258.657,419.358C258.721,419.41 258.782,419.462 258.847,419.513C259.023,419.65 259.204,419.785 259.394,419.918C259.415,419.933 259.435,419.949 259.457,419.964C259.669,420.111 259.89,420.255 260.118,420.397C260.189,420.44 260.263,420.482 260.334,420.525C260.497,420.623 260.661,420.719 260.832,420.814C260.922,420.864 261.013,420.913 261.105,420.962C261.265,421.048 261.431,421.133 261.597,421.217C261.695,421.265 261.792,421.314 261.89,421.361C262.068,421.446 262.249,421.529 262.432,421.61C262.525,421.652 262.615,421.694 262.709,421.734C262.952,421.839 263.201,421.941 263.454,422.041C263.491,422.055 263.526,422.07 263.562,422.085C263.854,422.198 264.154,422.307 264.458,422.413C264.478,422.42 264.496,422.427 264.516,422.434C264.568,422.452 264.624,422.468 264.676,422.485C264.953,422.579 265.234,422.669 265.52,422.757C265.623,422.788 265.726,422.819 265.829,422.85C266.138,422.941 266.452,423.028 266.771,423.111C266.814,423.123 266.855,423.136 266.898,423.147C266.906,423.149 266.914,423.15 266.922,423.152C267.576,423.32 268.252,423.471 268.945,423.607C268.959,423.61 268.972,423.613 268.987,423.616C269.019,423.622 269.053,423.627 269.085,423.633C269.671,423.745 270.269,423.846 270.88,423.934C270.893,423.936 270.905,423.939 270.918,423.941C270.95,423.945 270.983,423.948 271.015,423.952C271.593,424.033 272.179,424.104 272.776,424.162C272.787,424.163 272.797,424.165 272.807,424.166C272.811,424.166 272.814,424.166 272.818,424.167C273.39,424.222 273.973,424.264 274.561,424.297C274.611,424.3 274.659,424.305 274.709,424.308C274.735,424.309 274.762,424.309 274.788,424.311C275.358,424.34 275.936,424.357 276.518,424.365C276.573,424.365 276.625,424.369 276.68,424.37C276.831,424.371 276.982,424.372 277.133,424.372C277.622,424.372 278.105,424.361 278.586,424.346C278.645,424.344 278.706,424.345 278.765,424.343C278.808,424.342 278.849,424.337 278.892,424.335C279.575,424.309 280.247,424.268 280.91,424.212C280.952,424.209 280.997,424.208 281.04,424.205C281.069,424.202 281.095,424.197 281.124,424.195C281.983,424.118 282.823,424.019 283.642,423.896C283.66,423.893 283.679,423.892 283.697,423.889C283.729,423.885 283.758,423.877 283.789,423.872C284.508,423.762 285.21,423.633 285.893,423.489C285.956,423.475 286.02,423.462 286.083,423.449C286.791,423.295 287.48,423.125 288.144,422.937C288.149,422.936 288.155,422.935 288.16,422.933C288.163,422.932 288.166,422.931 288.168,422.931C288.661,422.791 289.137,422.64 289.602,422.482C289.656,422.464 289.712,422.446 289.767,422.428C290.208,422.275 290.634,422.114 291.048,421.947C291.086,421.931 291.128,421.918 291.166,421.902C291.208,421.885 291.248,421.866 291.291,421.848C291.489,421.765 291.683,421.68 291.875,421.594C291.96,421.556 292.046,421.519 292.13,421.48C292.4,421.355 292.664,421.227 292.92,421.095C292.943,421.083 292.964,421.071 292.987,421.059C293.219,420.938 293.444,420.814 293.664,420.688C293.742,420.643 293.817,420.597 293.894,420.551C294.054,420.455 294.212,420.359 294.366,420.26C294.403,420.236 294.444,420.213 294.481,420.189C294.52,420.163 294.555,420.136 294.593,420.11C294.778,419.987 294.957,419.861 295.13,419.734C295.184,419.693 295.241,419.654 295.294,419.613C295.511,419.448 295.719,419.28 295.915,419.109C295.925,419.1 295.937,419.092 295.947,419.083C295.999,419.038 296.044,418.991 296.095,418.945C296.199,418.85 296.303,418.755 296.401,418.658C296.464,418.596 296.523,418.532 296.584,418.469C296.672,418.377 296.76,418.284 296.843,418.19C296.864,418.166 296.888,418.143 296.908,418.119C296.926,418.099 296.938,418.077 296.955,418.056C297.176,417.795 297.376,417.529 297.55,417.257C297.558,417.243 297.571,417.23 297.58,417.216C297.594,417.193 297.602,417.169 297.616,417.147C297.776,416.886 297.918,416.622 298.032,416.353C298.036,416.346 298.041,416.338 298.044,416.331C298.052,416.313 298.054,416.295 298.061,416.277C298.17,416.012 298.258,415.743 298.321,415.47C298.323,415.46 298.329,415.449 298.331,415.439C298.332,415.435 298.332,415.431 298.333,415.428C298.394,415.15 298.426,414.868 298.438,414.584C298.439,414.56 298.446,414.536 298.447,414.512C298.448,414.47 298.448,414.428 298.448,414.386L298.448,359.072L255.826,359.072Z" style="fill:rgb(70,16,16);fill-rule:nonzero;"/>
            </g>
        </g>
        <g transform="matrix(4.16667,0,0,4.16667,0,0)">
            <g transform="matrix(2.89104,0,0,2.89104,-309.58,-715.831)">
                <path d="M262.135,403.802L262.135,408.383C262.135,408.383 266.58,410.281 273.009,410.281L273.009,405.409C273.009,405.409 268.191,405.838 262.135,403.802Z" style="fill:rgb(125,19,21);fill-rule:nonzero;"/>
            </g>
        </g>
        <g transform="matrix(4.16667,0,0,4.16667,0,0)">
            <g transform="matrix(2.89104,0,0,2.89104,-309.58,-715.831)">
                <path d="M292.63,410.462L292.63,415.772C292.63,415.772 288.185,417.671 281.757,417.671L281.757,412.798C281.757,412.798 289.482,412.792 292.63,410.462Z" style="fill:rgb(125,19,21);fill-rule:nonzero;"/>
            </g>
        </g>
        <g transform="matrix(4.16667,0,0,4.16667,0,0)">
            <g transform="matrix(2.89104,0,0,2.89104,-309.58,-715.831)">
                <path d="M294.33,399.378L294.33,404.688C294.33,404.688 290.841,406.587 285.794,406.587L285.794,401.714C285.794,401.714 291.859,401.708 294.33,399.378Z" style="fill:rgb(125,19,21);fill-rule:nonzero;"/>
            </g>
        </g>
        <g transform="matrix(4.16667,0,0,4.16667,0,0)">
            <g transform="matrix(2.89104,0,0,2.89104,-309.58,-715.831)">
                <path d="M267.572,397.597C265.039,397.308 262.384,396.71 259.944,395.589L259.944,400.17C259.944,400.17 262.78,401.586 267.572,402.262L267.572,397.597Z" style="fill:rgb(125,19,21);fill-rule:nonzero;"/>
            </g>
        </g>
        <g transform="matrix(4.16667,0,0,4.16667,0,0)">
            <g transform="matrix(2.89104,0,0,2.89104,-309.58,-715.831)">
                <path d="M269.49,397.763L269.49,402.483C272.216,402.716 275.436,402.677 279.036,402.069L279.036,397.197C279.036,397.197 274.742,398.071 269.49,397.763Z" style="fill:rgb(125,19,21);fill-rule:nonzero;"/>
            </g>
        </g>
        <g transform="matrix(4.16667,0,0,4.16667,0,0)">
            <g transform="matrix(2.89104,0,0,2.89104,-309.58,-715.831)">
                <path d="M302.756,375.865L302.733,363.269L294.923,364.099L294.904,353.506L290.41,357.127L290.433,369.723L293.844,366.974L293.867,379.393C294.433,378.537 294.778,377.632 294.88,376.702L294.861,366.155L294.88,376.702L295.571,376.629L295.588,385.797L300.51,381.83L300.5,376.105L302.756,375.865Z" style="fill:rgb(125,19,21);fill-rule:nonzero;"/>
            </g>
        </g>
        <g transform="matrix(4.16667,0,0,4.16667,0,0)">
            <g transform="matrix(2.89104,0,0,2.89104,-309.58,-715.831)">
                <path d="M287.352,384.041C287.473,383.994 287.593,383.948 287.711,383.901C288.136,383.729 288.551,383.551 288.944,383.36L288.922,370.764C288.528,370.955 288.113,371.133 287.688,371.305C287.57,371.352 287.45,371.398 287.33,371.444C286.974,371.581 286.609,371.711 286.234,371.834C286.138,371.865 286.045,371.899 285.948,371.929C285.547,372.055 285.138,372.174 284.717,372.283C284.716,372.283 284.715,372.284 284.714,372.284L284.722,376.724L277.606,377.481L277.629,390.077L286.251,389.16L286.242,384.435C286.248,384.433 286.253,384.431 286.258,384.429C286.633,384.306 286.997,384.177 287.352,384.041Z" style="fill:rgb(125,19,21);fill-rule:nonzero;"/>
            </g>
        </g>
        <g transform="matrix(4.16667,0,0,4.16667,0,0)">
            <g transform="matrix(2.89104,0,0,2.89104,-309.58,-715.831)">
                <path d="M272.889,368.504C271.681,368.201 270.618,367.636 269.762,366.9L269.775,373.755L266.649,376.276L263.874,375.258L263.864,369.982C262.756,369.305 261.812,368.54 261.081,367.696L260.444,367.764L260.43,360.316L253.787,357.876L253.806,368.47L253.205,368.534L253.228,381.13L259.383,380.475L259.394,386.203L266.672,388.872L271.165,385.248C271.45,385.303 271.738,385.355 272.028,385.403C272.073,385.41 272.12,385.414 272.165,385.421C272.636,385.496 273.112,385.564 273.596,385.618C273.599,385.618 273.603,385.619 273.606,385.619C273.632,385.622 273.658,385.623 273.684,385.626C274.125,385.674 274.572,385.711 275.023,385.741C275.071,385.744 275.118,385.75 275.166,385.753C275.478,385.772 275.792,385.786 276.108,385.796L276.085,373.2C275.72,373.189 275.36,373.168 275,373.145C274.552,373.115 274.107,373.078 273.668,373.031C273.636,373.027 273.604,373.025 273.572,373.022C273.31,372.993 273.055,372.951 272.796,372.915C272.798,372.914 272.8,372.914 272.802,372.913C272.989,372.838 273.185,372.768 273.386,372.703C273.444,372.684 273.506,372.667 273.565,372.649C273.719,372.602 273.877,372.557 274.039,372.516C274.116,372.496 274.195,372.478 274.274,372.459C274.429,372.423 274.586,372.391 274.746,372.36C274.824,372.345 274.902,372.33 274.982,372.317C275.235,372.274 275.492,372.236 275.758,372.208C275.888,372.194 276.018,372.188 276.147,372.178C276.29,372.167 276.432,372.154 276.574,372.147C276.812,372.137 277.049,372.131 277.283,372.133C277.37,372.133 277.455,372.139 277.541,372.141C277.68,372.145 277.82,372.148 277.958,372.156C278.048,372.161 278.136,372.17 278.225,372.177C278.349,372.187 278.474,372.196 278.596,372.209C278.683,372.218 278.767,372.23 278.853,372.241C278.979,372.258 279.105,372.273 279.229,372.293C279.309,372.306 279.387,372.321 279.467,372.335C279.603,372.36 279.739,372.385 279.873,372.414C279.949,372.43 280.023,372.448 280.098,372.466C280.257,372.503 280.413,372.544 280.566,372.587C280.628,372.605 280.691,372.622 280.752,372.64C281.003,372.716 281.246,372.8 281.479,372.891C281.547,372.918 281.614,372.946 281.68,372.975C281.778,373.016 281.875,373.057 281.969,373.101C282.04,373.134 282.109,373.169 282.178,373.204C282.268,373.249 282.356,373.295 282.442,373.343C282.508,373.379 282.573,373.417 282.636,373.455C282.719,373.505 282.798,373.555 282.876,373.607C282.936,373.647 282.996,373.688 283.053,373.729C283.128,373.783 283.199,373.838 283.268,373.894C283.321,373.936 283.375,373.979 283.425,374.023C283.492,374.081 283.554,374.142 283.616,374.202C283.661,374.247 283.707,374.291 283.749,374.336C283.809,374.401 283.863,374.468 283.917,374.535C283.952,374.579 283.99,374.622 284.023,374.668C284.078,374.743 284.125,374.821 284.171,374.9C284.195,374.938 284.222,374.976 284.243,375.016C284.307,375.135 284.362,375.256 284.406,375.38C284.451,375.508 284.485,375.636 284.508,375.763C284.53,375.89 284.541,376.017 284.541,376.143L284.541,376.142L284.541,376.143L284.525,366.958C281.242,368.995 276.753,369.474 272.889,368.504Z" style="fill:rgb(125,19,21);fill-rule:nonzero;"/>
            </g>
        </g>
        <g transform="matrix(4.16667,0,0,4.16667,0,0)">
            <g transform="matrix(2.89104,0,0,2.89104,-309.58,-715.831)">
                <path d="M269.56,354.829L269.583,367.425L268.063,363.141L268.04,350.545L269.56,354.829Z" style="fill:rgb(70,16,16);fill-rule:nonzero;"/>
            </g>
        </g>
        <g transform="matrix(4.16667,0,0,4.16667,0,0)">
            <g transform="matrix(2.89104,0,0,2.89104,-309.58,-715.831)">
                <path d="M294.857,364.106C294.842,364.244 294.821,364.382 294.796,364.518C294.741,364.809 294.662,365.096 294.561,365.38C294.458,365.668 294.331,365.953 294.181,366.233C294.08,366.423 293.967,366.611 293.844,366.797L293.867,379.393C293.99,379.208 294.102,379.019 294.204,378.829C294.354,378.549 294.481,378.264 294.584,377.976C294.685,377.692 294.764,377.405 294.818,377.114C294.844,376.978 294.865,376.84 294.88,376.702L294.857,364.106Z" style="fill:rgb(50,16,16);fill-rule:nonzero;"/>
            </g>
        </g>
        <g transform="matrix(4.16667,0,0,4.16667,0,0)">
            <g transform="matrix(2.89104,0,0,2.89104,-309.58,-715.831)">
                <path d="M253.205,368.534L253.228,381.13L251.564,376.437L251.541,363.841L253.205,368.534Z" style="fill:rgb(70,16,16);fill-rule:nonzero;"/>
            </g>
        </g>
        <g transform="matrix(4.16667,0,0,4.16667,0,0)">
            <g transform="matrix(2.89104,0,0,2.89104,-309.58,-715.831)">
                <path d="M263.864,361.586L263.887,374.182C262.779,373.504 261.836,373.329 261.104,372.485L261.081,359.3C261.812,360.144 262.756,360.908 263.864,361.586Z" style="fill:rgb(70,16,16);fill-rule:nonzero;"/>
            </g>
        </g>
        <g transform="matrix(4.16667,0,0,4.16667,0,0)">
            <g transform="matrix(2.89104,0,0,2.89104,-309.58,-715.831)">
                <path d="M295.565,373.201L295.588,385.797L288.944,383.36L288.922,370.764L295.565,373.201Z" style="fill:rgb(70,16,16);fill-rule:nonzero;"/>
            </g>
        </g>
        <g transform="matrix(4.16667,0,0,4.16667,0,0)">
            <g transform="matrix(2.89104,0,0,2.89104,-309.58,-715.831)">
                <path d="M277.606,377.481L277.629,390.077L276.108,385.796L276.085,373.2L277.606,377.481Z" style="fill:rgb(70,16,16);fill-rule:nonzero;"/>
            </g>
        </g>
        <g transform="matrix(4.16667,0,0,4.16667,0,0)">
            <g transform="matrix(2.89104,0,0,2.89104,-309.58,-715.831)">
                <path d="M271.142,372.652L271.165,385.248L266.672,388.872L266.649,376.276L271.142,372.652Z" style="fill:rgb(70,16,16);fill-rule:nonzero;"/>
            </g>
        </g>
        <g transform="matrix(4.16667,0,0,4.16667,0,0)">
            <g transform="matrix(2.89104,0,0,2.89104,-309.58,-715.831)">
                <path d="M278.533,367.498C282.539,367.072 285.156,364.963 284.383,362.784C283.709,360.887 280.681,359.563 277.26,359.537C276.758,359.533 276.248,359.557 275.735,359.612C271.736,360.037 269.119,362.15 269.891,364.325C270.565,366.225 273.592,367.547 277.007,367.573C277.509,367.576 278.02,367.552 278.533,367.498ZM294.857,364.106C294.755,365.036 294.41,365.941 293.844,366.797L300.487,369.234L295.565,373.201L288.922,370.764C287.674,371.369 286.26,371.884 284.714,372.284L286.228,376.564L277.606,377.481L276.085,373.2C274.371,373.147 272.714,372.958 271.142,372.652L266.649,376.276L259.371,373.607L263.864,369.982C262.756,369.305 261.812,368.54 261.081,367.696L253.205,368.534L251.541,363.841L259.417,363.003C259.513,362.074 259.864,361.168 260.43,360.316L253.787,357.875L258.709,353.909L265.353,356.349C266.601,355.741 268.015,355.226 269.56,354.829L268.04,350.545L276.668,349.629L278.189,353.909C279.897,353.963 281.56,354.152 283.132,354.458L287.625,350.837L294.904,353.506L290.41,357.127C291.518,357.805 292.462,358.569 293.193,359.413L301.063,358.576L302.733,363.269L294.857,364.106Z" style="fill:rgb(237,28,36);fill-rule:nonzero;"/>
            </g>
        </g>
    </g>
</svg>
