<?xml version="1.0" encoding="UTF-8" standalone="no"?><!DOCTYPE svg PUBLIC "-//W3C//DTD SVG 1.1//EN" "http://www.w3.org/Graphics/SVG/1.1/DTD/svg11.dtd"><svg width="100%" height="100%" viewBox="0 0 2212 2223" version="1.1" xmlns="http://www.w3.org/2000/svg" xmlns:xlink="http://www.w3.org/1999/xlink" xml:space="preserve" xmlns:serif="http://www.serif.com/" style="fill-rule:evenodd;clip-rule:evenodd;stroke-linejoin:round;stroke-miterlimit:2;"><path d="M1612.45,1331.68c-27.514,-13.773 -162.787,-80.324 -188.009,-89.52c-25.217,-9.179 -43.56,-13.765 -61.902,13.773c-18.343,27.538 -71.075,89.52 -87.124,107.887c-16.046,18.358 -32.1,20.663 -59.614,6.882c-27.514,-13.769 -116.171,-42.819 -221.261,-136.565c-81.794,-72.959 -137.017,-163.057 -153.062,-190.602c-16.054,-27.546 -1.719,-42.436 12.058,-56.153c12.383,-12.332 27.522,-32.14 41.275,-48.209c13.757,-16.062 18.343,-27.546 27.514,-45.897c9.171,-18.37 4.586,-34.432 -2.297,-48.201c-6.874,-13.773 -61.903,-149.209 -84.831,-204.304c-22.334,-53.646 -45.017,-46.38 -61.907,-47.231c-16.03,-0.796 -34.392,-0.966 -52.731,-0.966c-18.343,-0 -48.154,6.886 -73.379,34.424c-25.213,27.546 -96.295,94.117 -96.295,229.537c-0,135.44 98.588,266.267 112.349,284.63c13.761,18.37 194.012,296.279 470.032,415.459c65.641,28.354 116.892,45.279 156.852,57.959c65.91,20.944 125.888,17.986 173.302,10.902c52.862,-7.893 162.787,-66.556 185.716,-130.823c22.928,-64.283 22.928,-119.37 16.046,-130.842c-6.875,-11.48 -25.218,-18.367 -52.732,-32.14m-502.033,685.476l-0.368,0c-164.233,-0.063 -325.314,-44.189 -465.839,-127.575l-33.422,-19.84l-346.401,90.871l92.458,-337.741l-21.757,-34.63c-91.618,-145.72 -140.009,-314.139 -139.938,-487.08c0.202,-504.627 410.787,-915.181 915.631,-915.181c244.467,0.088 474.262,95.413 647.073,268.417c172.798,172.993 267.906,402.946 267.811,647.5c-0.206,504.671 -410.783,915.259 -915.248,915.259m778.948,-1694.22c-207.9,-208.142 -484.379,-322.819 -778.956,-322.938c-606.953,0 -1100.94,493.955 -1101.18,1101.09c-0.079,194.084 50.624,383.515 146.987,550.516l-156.214,570.616l583.744,-153.125c160.843,87.726 341.93,133.967 526.229,134.026l0.455,0c606.886,0 1100.92,-494.002 1101.17,-1101.15c0.11,-294.232 -114.326,-570.893 -322.226,-779.031" style="fill:#fff;"/></svg>